<svg width="29" height="29" viewBox="0 0 29 29" fill="none" xmlns="http://www.w3.org/2000/svg">
<path d="M12.0833 10.875C12.0833 10.2341 12.3379 9.61941 12.7911 9.1662C13.2443 8.71299 13.859 8.45837 14.4999 8.45837H19.3333C19.9742 8.45837 20.5889 8.71299 21.0421 9.1662C21.4953 9.61941 21.7499 10.2341 21.7499 10.875V12.0834C21.7499 12.7243 21.4953 13.339 21.0421 13.7922C20.5889 14.2454 19.9742 14.5 19.3333 14.5H14.4999C13.859 14.5 13.2443 14.2454 12.7911 13.7922C12.3379 13.339 12.0833 12.7243 12.0833 12.0834V10.875ZM14.4999 10.2709C14.3397 10.2709 14.186 10.3345 14.0727 10.4478C13.9594 10.5611 13.8958 10.7148 13.8958 10.875V12.0834C13.8958 12.2436 13.9594 12.3973 14.0727 12.5106C14.186 12.6239 14.3397 12.6875 14.4999 12.6875H19.3333C19.4935 12.6875 19.6472 12.6239 19.7605 12.5106C19.8738 12.3973 19.9374 12.2436 19.9374 12.0834V10.875C19.9374 10.7148 19.8738 10.5611 19.7605 10.4478C19.6472 10.3345 19.4935 10.2709 19.3333 10.2709H14.4999Z" fill="#34626C"/>
<path d="M4.83329 4.83337C4.19235 4.83337 3.57766 5.08799 3.12445 5.5412C2.67124 5.99441 2.41663 6.6091 2.41663 7.25004V21.75C2.41663 22.391 2.67124 23.0057 3.12445 23.4589C3.57766 23.9121 4.19235 24.1667 4.83329 24.1667H24.1666C24.8076 24.1667 25.4223 23.9121 25.8755 23.4589C26.3287 23.0057 26.5833 22.391 26.5833 21.75V7.25004C26.5833 6.6091 26.3287 5.99441 25.8755 5.5412C25.4223 5.08799 24.8076 4.83337 24.1666 4.83337H4.83329ZM24.1666 6.64587C24.3269 6.64587 24.4805 6.70953 24.5938 6.82283C24.7071 6.93613 24.7708 7.08981 24.7708 7.25004V21.75C24.7708 21.9103 24.7071 22.0639 24.5938 22.1772C24.4805 22.2906 24.3269 22.3542 24.1666 22.3542H9.06246V6.64587H24.1666ZM4.83329 6.64587H7.24996V22.3542H4.83329C4.67306 22.3542 4.51939 22.2906 4.40608 22.1772C4.29278 22.0639 4.22913 21.9103 4.22913 21.75V7.25004C4.22913 7.08981 4.29278 6.93613 4.40608 6.82283C4.51939 6.70953 4.67306 6.64587 4.83329 6.64587Z" fill="#34626C"/>
</svg>
